<svg xmlns="http://www.w3.org/2000/svg" width="512" height="512" viewBox="0 0 512 512">
  <!-- Flame base -->
  <path
    d="M256 448c-77 0-128-61-128-128 0-77 51-128 77-179 25-51 51-102 51-102s26 51 51 102c26 51 77 102 77 179 0 67-51 128-128 128z"
    fill="#FF512F"
  />
  <!-- Music note overlay -->
  <path
    d="M230 179v154c-8-5-18-8-28-8-28 0-49 20-49 46s21 46 49 46 49-20 49-46V230l77-26v77c-8-5-18-8-28-8-28 0-49 20-49 46s21 46 49 46 49-20 49-46V154L230 179z"
    fill="#FFFFFF"
  />
  <!-- Inner flame highlight -->
  <path
    d="M256 384c-41 0-77-36-77-77 0-51 36-77 51-113 15-36 26-67 26-67s10 31 26 67c15 36 51 62 51 113 0 41-36 77-77 77z"
    fill="#F09819"
  />
</svg>