<?xml version="1.0" standalone="no"?>
<!DOCTYPE svg PUBLIC "-//W3C//DTD SVG 20010904//EN"
 "http://www.w3.org/TR/2001/REC-SVG-20010904/DTD/svg10.dtd">
<svg version="1.0" xmlns="http://www.w3.org/2000/svg"
 width="607.000000pt" height="562.000000pt" viewBox="0 0 607.000000 562.000000"
 preserveAspectRatio="xMidYMid meet">

<g transform="translate(0.000000,562.000000) scale(0.100000,-0.100000)"
fill="#000000" stroke="none">
<path d="M0 2810 l0 -2810 3035 0 3035 0 0 2810 0 2810 -3035 0 -3035 0 0
-2810z m5390 2399 c-102 -3 -462 -8 -800 -10 -338 -1 -547 -5 -463 -8 83 -3
155 -9 159 -13 4 -5 -4 -8 -19 -8 -15 0 -32 -9 -40 -20 -9 -13 -20 -18 -31
-14 -9 4 -16 3 -15 -2 5 -27 -2 -36 -26 -32 -21 4 -24 2 -20 -12 3 -9 -3 -24
-15 -35 -17 -15 -22 -16 -36 -4 -16 13 -16 12 -5 -8 6 -13 10 -23 9 -24 -2 0
-13 -2 -25 -3 -11 -1 -40 -22 -64 -46 -24 -24 -45 -38 -47 -32 -4 14 -38 -10
-112 -80 -27 -25 -52 -42 -56 -37 -3 6 -14 0 -24 -11 -11 -12 -24 -19 -29 -15
-6 3 -11 0 -11 -8 0 -8 -7 -21 -17 -28 -15 -13 -15 -12 -3 11 13 25 13 25 -8
6 -12 -10 -19 -23 -16 -28 4 -6 -3 -5 -14 1 -25 13 -43 14 -22 1 12 -7 10 -12
-9 -29 -26 -22 -36 -27 -26 -12 3 5 1 12 -5 16 -5 3 -10 -1 -10 -10 0 -9 -4
-13 -10 -10 -5 3 -10 1 -10 -4 0 -6 -4 -11 -10 -11 -5 0 -7 8 -4 18 4 9 -5 4
-20 -13 -14 -16 -25 -38 -26 -47 0 -13 -8 -18 -26 -18 -17 0 -23 4 -19 13 4 6
0 3 -9 -7 -8 -10 -13 -23 -9 -29 3 -6 1 -7 -5 -3 -7 4 -12 2 -12 -4 0 -6 -4
-9 -9 -6 -5 4 -11 1 -13 -6 -4 -11 -48 -23 -48 -12 0 3 5 15 11 27 10 21 10
21 -5 2 -8 -11 -23 -28 -32 -37 -10 -10 -14 -21 -11 -25 4 -3 2 -12 -4 -19 -8
-10 -16 -11 -29 -4 -16 9 -18 7 -15 -11 4 -17 2 -19 -10 -9 -12 10 -15 10 -15
0 0 -7 -8 -10 -20 -7 -12 3 -20 1 -19 -6 3 -20 -12 -47 -23 -41 -6 4 -5 -3 1
-15 9 -17 9 -20 -3 -15 -8 3 -21 -4 -29 -16 -9 -12 -20 -19 -26 -15 -6 3 -11
-1 -11 -9 0 -9 -3 -15 -7 -15 -19 3 -34 -2 -29 -9 3 -5 -4 -18 -14 -30 l-20
-21 87 -4 c49 -1 0 -4 -107 -5 -409 -4 -669 -62 -958 -213 -203 -106 -392
-265 -541 -456 -69 -89 -105 -110 -165 -99 -18 3 -46 20 -62 37 l-29 30 0 132
c1 359 179 753 467 1034 245 240 607 412 950 452 40 5 705 8 1478 8 773 0
1322 -4 1220 -8z m320 -9 c18 -12 2 -12 -25 0 -13 6 -15 9 -5 9 8 0 22 -4 30
-9z m-1930 -400 c0 -5 -5 -10 -11 -10 -5 0 -7 5 -4 10 3 6 8 10 11 10 2 0 4
-4 4 -10z m-225 -120 c3 -5 -1 -10 -10 -10 -9 0 -13 5 -10 10 3 6 8 10 10 10
2 0 7 -4 10 -10z m-1240 -914 c19 -8 44 -30 55 -48 19 -31 20 -48 18 -333 -1
-165 -3 -271 -5 -235 -2 36 -8 69 -14 74 -5 6 -9 2 -9 -11 0 -26 -8 -32 -48
-37 -22 -2 -29 0 -25 10 3 8 1 14 -5 14 -5 0 -9 -16 -8 -35 1 -19 -3 -35 -7
-35 -5 0 -23 -10 -40 -22 -43 -31 -65 -33 -70 -5 -2 12 -6 -43 -7 -123 l-4
-145 -6 120 c-4 66 -8 255 -9 420 -1 336 1 350 70 387 41 22 68 23 114 4z
m1070 -28 c64 -38 715 -488 715 -494 0 -6 -65 36 -175 111 -148 101 -228 147
-235 135 -10 -15 -21 -15 -31 2 -6 9 -9 6 -9 -10 0 -15 -7 -26 -20 -29 -11 -3
-20 -10 -20 -17 -1 -18 -58 -69 -70 -61 -6 4 -9 14 -6 22 4 8 1 11 -5 8 -6 -4
-8 -13 -5 -21 3 -8 1 -14 -4 -14 -6 0 -10 -7 -10 -15 0 -8 -16 -22 -35 -31
-19 -9 -32 -21 -29 -26 4 -6 -3 -5 -15 1 -17 10 -21 9 -21 -4 0 -10 5 -13 12
-9 7 5 8 3 4 -5 -5 -7 -14 -10 -22 -7 -8 3 -11 0 -8 -8 3 -8 -4 -16 -15 -19
-25 -6 -34 2 -20 20 9 10 8 13 -2 12 -20 -1 -56 -17 -40 -18 11 -1 11 -4 1
-16 -7 -8 -16 -13 -20 -10 -5 3 -11 1 -15 -5 -4 -7 -12 -7 -25 0 -13 7 -21 7
-26 -2 -4 -7 -3 -8 4 -4 7 4 12 2 12 -5 0 -6 -8 -9 -20 -6 -11 3 -20 1 -20 -5
0 -5 -4 -6 -10 -3 -6 4 -10 -8 -11 -27 0 -31 -1 -32 -10 -9 -8 19 -12 22 -22
12 -9 -9 -14 -93 -17 -299 -5 -243 -6 -205 -8 246 -2 568 -3 561 46 605 29 27
92 46 127 40 17 -3 53 -19 80 -35z m-1560 -312 c19 -8 44 -30 55 -48 19 -31
20 -48 18 -258 -1 -133 -4 -203 -8 -170 -4 30 -7 47 -8 37 -2 -20 -25 -47 -40
-47 -5 0 -15 -7 -22 -15 -12 -14 -15 -14 -31 1 -13 12 -19 13 -19 5 0 -7 -10
-21 -22 -31 -30 -24 -68 -8 -68 28 0 14 -3 23 -6 20 -3 -4 -9 -82 -13 -175 -7
-146 -8 -120 -9 208 -2 372 -2 377 20 404 22 28 69 54 101 55 10 0 33 -6 52
-14z m-457 -316 c48 -29 62 -72 62 -190 0 -82 -3 -100 -15 -100 -8 0 -15 -7
-15 -15 0 -8 -4 -15 -9 -15 -5 0 -13 -9 -16 -20 -4 -11 -11 -18 -16 -15 -5 4
-9 1 -9 -4 0 -6 -7 -11 -15 -11 -8 0 -15 -4 -15 -10 0 -5 -9 -10 -20 -10 -11
0 -20 5 -20 11 0 16 -28 41 -34 30 -3 -5 0 -11 8 -14 7 -3 16 -15 19 -26 4
-17 2 -19 -13 -11 -9 5 -20 6 -24 3 -3 -3 -6 -1 -6 5 0 7 5 12 11 12 7 0 1 10
-13 23 -14 13 -28 30 -31 38 -3 8 -6 -67 -6 -165 -1 -99 -3 -177 -6 -175 -2 3
-5 137 -6 299 -3 322 -2 326 54 360 41 26 93 25 135 0z m-478 -235 c33 -17 50
-43 50 -76 0 -18 -3 -19 -15 -9 -8 6 -19 9 -25 5 -9 -6 -13 7 -13 48 1 25 -38
41 -79 33 -40 -7 -76 -31 -66 -42 5 -4 16 0 26 9 28 25 45 20 64 -18 15 -31
16 -35 2 -35 -8 0 -13 -4 -10 -8 6 -10 -52 -15 -67 -5 -7 4 -19 8 -27 8 -13 0
-16 -33 -20 -215 l-6 -215 -2 223 c-2 244 2 267 56 296 35 20 95 20 132 1z
m56 -223 c-8 -7 -35 29 -36 46 0 6 7 12 15 12 8 0 16 6 17 13 1 6 3 -5 5 -27
3 -21 2 -41 -1 -44z m-516 8 c22 -11 40 -25 40 -31 0 -6 -12 -1 -26 10 -41 32
-115 29 -155 -7 -27 -24 -33 -38 -39 -93 -7 -64 -7 -64 -9 -14 -1 65 24 115
69 137 45 23 72 23 120 -2z m980 -817 l45 -47 -47 42 c-55 49 -90 54 -114 17
-13 -20 -14 -32 -5 -75 6 -28 11 -61 10 -73 -1 -19 -2 -19 -9 5 -34 112 -18
178 43 178 26 0 42 -10 77 -47z m125 -123 c21 -22 37 -40 34 -40 -3 0 -23 18
-44 40 -21 22 -37 40 -34 40 3 0 23 -18 44 -40z m-228 -62 c-3 -8 -6 -5 -6 6
-1 11 2 17 5 13 3 -3 4 -12 1 -19z m294 5 c13 -16 12 -17 -3 -4 -10 7 -18 15
-18 17 0 8 8 3 21 -13z m254 -171 c-3 -3 -11 0 -18 7 -9 10 -8 11 6 5 10 -3
15 -9 12 -12z"/>
<path d="M3038 4323 c7 -3 16 -2 19 1 4 3 -2 6 -13 5 -11 0 -14 -3 -6 -6z"/>
<path d="M3018 4303 c7 -3 16 -2 19 1 4 3 -2 6 -13 5 -11 0 -14 -3 -6 -6z"/>
<path d="M3590 3566 c0 -3 9 -10 20 -16 11 -6 20 -8 20 -6 0 3 -9 10 -20 16
-11 6 -20 8 -20 6z"/>
<path d="M3490 3375 c0 -10 -5 -13 -12 -9 -9 5 -9 2 1 -9 7 -9 16 -17 19 -17
3 0 2 3 -1 7 -4 3 -2 12 4 19 7 8 7 14 -1 19 -5 3 -10 -1 -10 -10z"/>
<path d="M3141 3214 c0 -11 3 -14 6 -6 3 7 2 16 -1 19 -3 4 -6 -2 -5 -13z"/>
</g>
</svg>
